<svg width="24" height="24" viewBox="0 0 24 24" fill="none" xmlns="http://www.w3.org/2000/svg">
<path fill-rule="evenodd" clip-rule="evenodd" d="M7 6.8V5H5V6.8H7ZM7 8.8H5V15.2H7V8.8ZM9 15.2V8.8H11V15.2H9ZM7 17.2H5V19H7V17.2ZM9 19V17.2H11V19H9ZM5 21C3.89543 21 3 20.1046 3 19V5C3 3.89543 3.89543 3 5 3H11C12.1046 3 13 3.89543 13 5V19C13 20.1046 12.1046 21 11 21H5ZM11 6.8H9V5H11V6.8Z" fill="#979797"/>
<path fill-rule="evenodd" clip-rule="evenodd" d="M17.4166 8.31324L15.4848 8.83088L17.0377 14.6265L18.9695 14.1088L17.4166 8.31324ZM16.899 6.38139L14.9671 6.89902L14.4495 4.96717L16.3813 4.44953L16.899 6.38139ZM18.3132 3.9319C18.0273 2.86496 16.9306 2.2318 15.8637 2.51768L13.9319 3.03532C12.8649 3.3212 12.2318 4.41788 12.5176 5.48481L16.1411 19.0078C16.427 20.0747 17.5237 20.7079 18.5906 20.422L20.5224 19.9044C21.5894 19.6185 22.2225 18.5218 21.9367 17.4549L18.3132 3.9319ZM19.4872 16.0407L17.5553 16.5583L18.073 18.4902L20.0048 17.9725L19.4872 16.0407Z" fill="#979797"/>
</svg>
